<?xml version="1.0" encoding="UTF-8"?>
<svg version="1.1" xmlns="http://www.w3.org/2000/svg" width="500" height="500">
<path d="M0 0 C0.67016602 2.27563477 0.67016602 2.27563477 1 5 C-0.03149414 6.83178711 -0.03149414 6.83178711 -1.72265625 8.58984375 C-2.6974292 9.62020752 -2.6974292 9.62020752 -3.69189453 10.67138672 C-4.45356934 11.4398291 -5.21524414 12.20827148 -6 13 C-6.86093262 13.88574707 -7.72186523 14.77149414 -8.60888672 15.68408203 C-11.02478965 18.15780072 -13.46519375 20.60583113 -15.9152832 23.0456543 C-17.43491668 24.5599258 -18.94912517 26.0794743 -20.46289062 27.59960938 C-25.80326473 32.94402029 -31.24202623 38.10382696 -37 43 C-38.19177607 44.04497129 -39.38189832 45.09183191 -40.5703125 46.140625 C-47.12800707 51.88853604 -53.75819488 57.48738443 -60.65209961 62.82836914 C-65.22658027 66.37373619 -69.71212439 70.01811371 -74.1875 73.6875 C-79.31944305 77.87893 -84.50131685 81.9331519 -89.8984375 85.78125 C-94.1081854 88.79275731 -98.27176459 91.86551807 -102.4375 94.9375 C-103.26854248 95.54956299 -104.09958496 96.16162598 -104.95581055 96.79223633 C-109.36593819 100.04370832 -113.75692859 103.31731558 -118.125 106.625 C-123.43802229 110.62452511 -128.85918513 114.45726167 -134.30126953 118.27783203 C-139.5653514 121.97631841 -144.79107894 125.72429278 -150 129.5 C-162.15507534 138.29763656 -174.403482 146.93868435 -186.8125 155.375 C-239.0965872 190.5139532 -239.0965872 190.5139532 -265.91015625 245.94140625 C-269.13571614 265.74335337 -266.29410975 287.11185936 -255 304 C-250.52225436 310.18659959 -245.55077704 315.76145417 -240 321 C-241.27208828 318.41671509 -242.6042611 315.88799069 -244.0234375 313.3828125 C-256.35800597 291.20048372 -259.80160165 266.70055335 -253 242 C-252.50693359 240.15728516 -252.50693359 240.15728516 -252.00390625 238.27734375 C-244.82469531 214.2555549 -227.2873987 196.16052587 -208 181 C-207.22527344 180.36964844 -206.45054687 179.73929688 -205.65234375 179.08984375 C-198.62595722 173.37723901 -191.36450328 167.98397356 -184.10546875 162.57324219 C-182.03468029 161.02591371 -179.96951178 159.47140932 -177.90625 157.9140625 C-171.16228442 152.82695276 -164.38315595 147.80681375 -157.49072266 142.92260742 C-152.53385679 139.40230315 -147.63864119 135.80178768 -142.75 132.1875 C-136.44292106 127.52541565 -130.11378748 122.89689171 -123.75 118.3125 C-111.32752576 109.35579843 -99.01481493 100.28704237 -86.84643555 90.98657227 C-81.41817997 86.83804903 -75.97265976 82.71474733 -70.5 78.625 C-64.67600011 74.2700714 -58.89085167 69.86865469 -53.13671875 65.421875 C-51.03904073 63.80224813 -48.93744207 62.18768691 -46.83203125 60.578125 C-45.76287294 59.76061005 -44.69386289 58.94290116 -43.625 58.125 C-43.10164062 57.72474609 -42.57828125 57.32449219 -42.0390625 56.91210938 C-38.96523215 54.54905578 -35.92954098 52.14513108 -32.91796875 49.703125 C-32.23460449 49.14995605 -31.55124023 48.59678711 -30.84716797 48.02685547 C-29.51057632 46.94173678 -28.17744533 45.8523388 -26.84814453 44.75830078 C-22.21978661 41 -22.21978661 41 -20 41 C-20 40.34 -20 39.68 -20 39 C-13.16744452 33.75641091 -7.36704944 33.85573033 0.89453125 33.90234375 C1.84188644 33.9037587 2.78924164 33.90517365 3.76530457 33.90663147 C6.78106895 33.91221389 9.79675818 33.92476318 12.8125 33.9375 C14.86132705 33.94251727 16.91015527 33.94707978 18.95898438 33.95117188 C23.97268506 33.96217757 28.9863298 33.97943012 34 34 C33.28578483 37.2388478 32.66365434 38.68124339 30.11328125 40.84765625 C29.21101807 41.62326904 29.21101807 41.62326904 28.29052734 42.41455078 C27.63777832 42.95837402 26.9850293 43.50219727 26.3125 44.0625 C25.63912598 44.63468262 24.96575195 45.20686523 24.27197266 45.79638672 C19.32152303 49.97365413 14.26117519 54.00206097 9.14086914 57.96826172 C4.52494399 61.55110196 0.05989586 65.28766071 -4.3828125 69.08203125 C-8.37325709 72.48564575 -12.43425665 75.78387724 -16.54296875 79.04296875 C-20.13156273 81.90129241 -23.67593101 84.81265026 -27.22265625 87.72265625 C-29.04021344 89.21300202 -30.86042748 90.70011494 -32.68359375 92.18359375 C-37.05552185 95.7433204 -41.399493 99.32920114 -45.68798828 102.98876953 C-51.27650645 107.75757117 -56.96252091 112.36085721 -62.76220703 116.87011719 C-67.92903857 120.90423684 -72.9245283 125.12053656 -77.91015625 129.375 C-82.54424805 133.3260362 -87.27533704 137.15819377 -92 141 C-93.81320692 142.47830002 -95.62570072 143.95747512 -97.4375 145.4375 C-98.33210937 146.16710937 -99.22671875 146.89671875 -100.1484375 147.6484375 C-102.20919849 149.34785958 -104.25448841 151.0589016 -106.2890625 152.7890625 C-106.83506104 153.25127197 -107.38105957 153.71348145 -107.94360352 154.18969727 C-109.48768829 155.49906066 -111.02716826 156.81384857 -112.56640625 158.12890625 C-115 160 -115 160 -117 160 C-117 160.66 -117 161.32 -117 162 C-118.7578125 163.55078125 -118.7578125 163.55078125 -121.125 165.3125 C-121.94097656 165.93125 -122.75695312 166.55 -123.59765625 167.1875 C-124.39042969 167.785625 -125.18320312 168.38375 -126 169 C-128.07791051 170.61195482 -130.04003852 172.24106021 -132 174 C-132 174.66 -132 175.32 -132 176 C-131.34 176.33 -130.68 176.66 -130 177 C-130 177.66 -130 178.32 -130 179 C-129.44602539 179.22727783 -128.89205078 179.45455566 -128.32128906 179.6887207 C-125.32266566 181.38262124 -123.27205539 183.52222907 -120.859375 185.98046875 C-120.37349915 186.47154617 -119.88762329 186.9626236 -119.38702393 187.46858215 C-117.83649697 189.03685648 -116.29280844 190.61163482 -114.75 192.1875 C-112.72743902 194.24694562 -110.70163317 196.30311594 -108.671875 198.35546875 C-108.17611969 198.85681335 -107.68036438 199.35815796 -107.16958618 199.87469482 C-103.9395465 203.11799859 -100.59357875 206.14390106 -97.11328125 209.11157227 C-92.23788781 213.46822294 -87.71672282 218.22270797 -83.125 222.875 C-81.06798047 224.95860255 -79.00766016 227.03886023 -76.9453125 229.1171875 C-76.04312988 230.03097168 -75.14094727 230.94475586 -74.21142578 231.88623047 C-72.18662739 234.02949166 -72.18662739 234.02949166 -70 235 C-70 235.66 -70 236.32 -70 237 C-69.34 237 -68.68 237 -68 237 C-68 237.66 -68 238.32 -68 239 C-67.42797852 239.24532471 -66.85595703 239.49064941 -66.26660156 239.7434082 C-63.61263203 241.21475473 -61.85500817 242.93552401 -59.734375 245.10546875 C-58.92613281 245.92466797 -58.11789062 246.74386719 -57.28515625 247.58789062 C-56.44855469 248.44576172 -55.61195313 249.30363281 -54.75 250.1875 C-49.66540314 255.37985519 -44.57770257 260.43727386 -39.05859375 265.16625977 C-34.89506262 268.8750219 -31.03570378 272.903571 -27.125 276.875 C-25.4424115 278.58300524 -23.75762867 280.28885251 -22.0703125 281.9921875 C-20.96840576 283.11149658 -20.96840576 283.11149658 -19.84423828 284.25341797 C-18.10805576 286.06693877 -18.10805576 286.06693877 -16 287 C-16 287.66 -16 288.32 -16 289 C-15.12166504 289.38828979 -15.12166504 289.38828979 -14.22558594 289.78442383 C-11.8311604 291.09221724 -10.28906671 292.49736101 -8.390625 294.44921875 C-7.71773438 295.13306641 -7.04484375 295.81691406 -6.3515625 296.52148438 C-5.65804688 297.23626953 -4.96453125 297.95105469 -4.25 298.6875 C0.40337092 303.46030154 5.11008312 308.04265523 10.16503906 312.38989258 C12.73842821 314.64794227 15.10784481 317.05020252 17.5 319.5 C21.34443593 323.40333397 25.25718932 327.04808372 29.5390625 330.46484375 C31.26287143 332.27622586 31.48376836 333.59492798 32 336 C18.87386816 336.20892029 5.74813453 336.36864284 -7.37932396 336.46630955 C-13.4756498 336.51319559 -19.57083468 336.57674673 -25.66650391 336.67895508 C-31.55400354 336.7770504 -37.44040883 336.83062217 -43.32866287 336.85389519 C-45.57018886 336.8704707 -47.81165776 336.90284052 -50.0527153 336.95157051 C-69.81807553 337.36409362 -69.81807553 337.36409362 -76.09814453 331.79858398 C-77.44609329 330.23873386 -78.75374591 328.64223902 -80 327 C-81.02330445 325.97356917 -82.06203199 324.96200983 -83.12304688 323.97460938 C-83.97962891 323.10642578 -84.83621094 322.23824219 -85.71875 321.34375 C-86.18817017 320.87054321 -86.65759033 320.39733643 -87.14123535 319.90979004 C-88.59672649 318.44237562 -90.04879104 316.97164852 -91.5 315.5 C-93.44502694 313.52836357 -95.39338711 311.56010644 -97.34375 309.59375 C-98.19130859 308.73458984 -99.03886719 307.87542969 -99.91210938 306.99023438 C-101.83976087 304.95785867 -101.83976087 304.95785867 -104 304 C-104 303.34 -104 302.68 -104 302 C-104.66 302 -105.32 302 -106 302 C-106 301.34 -106 300.68 -106 300 C-106.87764008 299.61082649 -106.87764008 299.61082649 -107.77301025 299.21379089 C-110.1628227 297.91125567 -111.72236974 296.51228946 -113.63183594 294.5793457 C-114.32645935 293.88134354 -115.02108276 293.18334137 -115.73675537 292.46418762 C-116.47846985 291.70901352 -117.22018433 290.95383942 -117.984375 290.17578125 C-119.14601166 289.00634224 -119.14601166 289.00634224 -120.33111572 287.8132782 C-122.80886979 285.31771638 -125.27986043 282.81559722 -127.75 280.3125 C-130.20666521 277.82808268 -132.66481455 275.34518253 -135.1260376 272.86528015 C-136.65602399 271.32318699 -138.18333153 269.77842961 -139.7074585 268.23054504 C-143.67496015 264.22640561 -147.74284595 260.4386157 -152.01306152 256.760849 C-155.54321116 253.63238753 -158.83411284 250.26789535 -162.1484375 246.9140625 C-162.8870401 246.17167328 -163.6256427 245.42928406 -164.3866272 244.66439819 C-166.71855278 242.32036882 -169.04717257 239.97309879 -171.375 237.625 C-174.46329622 234.51017311 -177.55485052 231.39863372 -180.6484375 228.2890625 C-181.35672699 227.57247467 -182.06501648 226.85588684 -182.79476929 226.11758423 C-183.44950226 225.45954803 -184.10423523 224.80151184 -184.77880859 224.12353516 C-185.35424408 223.54286285 -185.92967957 222.96219055 -186.52255249 222.36392212 C-187.97408796 220.89708029 -187.97408796 220.89708029 -190 220 C-190 219.34 -190 218.68 -190 218 C-190.57234375 217.75507813 -191.1446875 217.51015625 -191.734375 217.2578125 C-194.38024402 215.78889901 -196.14853139 214.04651756 -198.25 211.875 C-198.95640625 211.15054688 -199.6628125 210.42609375 -200.390625 209.6796875 C-201.18726563 208.84824219 -201.18726563 208.84824219 -202 208 C-202.30258315 218.59653254 -202.53287415 229.19202135 -202.67355824 239.79201031 C-202.74111937 244.71552376 -202.83257226 249.63606097 -202.98071289 254.55786133 C-203.12305495 259.31736266 -203.19990984 264.07402229 -203.23340416 268.83548927 C-203.25723678 270.64219702 -203.30378167 272.44876681 -203.37449074 274.25424767 C-203.88574716 285.32023219 -203.88574716 285.32023219 -199.16851807 294.97976685 C-196.04671799 298.32901685 -192.63972284 301.23231816 -189 304 C-188.1998497 304.63064362 -187.3996994 305.26128723 -186.57530212 305.91104126 C-184.81160534 307.24069548 -183.03106964 308.38632106 -181.125 309.5 C-180.465 309.89888428 -179.805 310.29776855 -179.125 310.70874023 C-160.99613168 321.24011348 -138.13952015 322.97604094 -118.0078125 317.75390625 C-114.68897103 316.92204079 -111.39123651 316.43771599 -108 316 C-107.67 317.32 -107.34 318.64 -107 320 C-124.59583904 332.42059226 -150.33705727 333.65753083 -171.04296875 330.3125 C-190.52042993 326.40405158 -206.4291268 316.22302773 -220 302 C-220.51480423 301.49271362 -221.02960846 300.98542725 -221.56001282 300.46276855 C-227.14105023 294.18548118 -226.86162196 287.97015941 -226.8046875 279.875 C-226.81595484 278.51877497 -226.82984296 277.16256942 -226.84622192 275.80639648 C-226.88207615 272.26182253 -226.88265736 268.71811426 -226.87554932 265.17340088 C-226.87463262 261.54643525 -226.90754836 257.91978757 -226.9375 254.29296875 C-226.99118825 247.19526558 -227.00756525 240.09792403 -227 233 C-227.95909551 235.22884145 -228.91729837 237.45805968 -229.875 239.6875 C-230.14441406 240.31333984 -230.41382813 240.93917969 -230.69140625 241.58398438 C-235.46599277 252.70527737 -237.34764589 261.71452353 -237.3125 273.875 C-237.32861328 274.98230469 -237.34472656 276.08960938 -237.36132812 277.23046875 C-237.37138968 294.35523719 -231.00039258 308.04987276 -219.0625 320.09375 C-198.46945128 340.02415111 -169.66874422 345.48414281 -142.06640625 345.43017578 C-129.60760239 345.20723219 -116.4921343 344.06076925 -104.68359375 339.8046875 C-101.68257541 338.90481883 -99.9731332 339.12554906 -97 340 C-96.15774 342.55986879 -95.32601449 345.12239015 -94.5 347.6875 C-94.26152344 348.40873047 -94.02304687 349.12996094 -93.77734375 349.87304688 C-92.55601006 353.69407657 -91.67924423 356.93442056 -92 361 C-139.11216584 374.16467613 -187.78407255 371.59362773 -231.0390625 347.375 C-237.33793697 343.69420174 -243.19194837 339.40172449 -249 335 C-250.18142578 334.17628906 -250.18142578 334.17628906 -251.38671875 333.3359375 C-252.18529297 332.67464844 -252.18529297 332.67464844 -253 332 C-253 331.34 -253 330.68 -253 330 C-253.59167969 329.731875 -254.18335938 329.46375 -254.79296875 329.1875 C-266.9050776 322.67054232 -274.85209586 306.21012237 -279.10546875 293.765625 C-286.13268513 266.1846255 -278.3955751 235.6180711 -264.40307617 211.50170898 C-260.94276447 205.73695675 -257.17945849 200.2700836 -253 195 C-251.78570312 193.46279297 -251.78570312 193.46279297 -250.546875 191.89453125 C-233.0685697 170.28552196 -209.91477152 154.30504185 -187.34521484 138.46948242 C-182.19799979 134.85661398 -177.09158819 131.19078585 -172 127.5 C-166.19441825 123.29302955 -160.36484045 119.12396042 -154.5 115 C-147.80649828 110.29267054 -141.15979004 105.52396872 -134.53271484 100.72363281 C-129.91204707 97.37724992 -125.27547221 94.05479537 -120.625 90.75 C-115.38858174 87.02317311 -110.23187615 83.19954902 -105.1015625 79.328125 C-101.73119127 76.79822418 -98.33824099 74.30131797 -94.9375 71.8125 C-94.3182666 71.35883057 -93.6990332 70.90516113 -93.06103516 70.43774414 C-90.27609389 68.39767809 -87.4905625 66.35843183 -84.703125 64.32177734 C-74.89336233 57.15079274 -65.17821759 49.8981912 -55.67382812 42.32666016 C-53.95162673 40.96165981 -52.21965176 39.61004984 -50.484375 38.26171875 C-42.4810434 32.03702765 -34.69419368 25.60173907 -27 19 C-25.78534331 17.96202065 -24.57049492 16.92426558 -23.35546875 15.88671875 C-22.74759521 15.36682373 -22.13972168 14.84692871 -21.51342773 14.3112793 C-20.30939748 13.28176018 -19.1045009 12.25325326 -17.89868164 11.22583008 C-14.07738552 7.95992663 -10.35539963 4.61031835 -6.74609375 1.109375 C-4.42317713 -0.36648254 -2.69605307 -0.20278006 0 0 Z M-167 184 C-165.51556158 187.46108537 -163.55369767 189.68513626 -160.875 192.3125 C-160.15054688 193.03050781 -159.42609375 193.74851562 -158.6796875 194.48828125 C-156.69487895 196.3486776 -154.69788394 198.10455706 -152.625 199.859375 C-148.54668614 203.40363534 -144.74703115 207.19250311 -140.9453125 211.02734375 C-139.99735306 211.98354362 -139.99735306 211.98354362 -139.03024292 212.95906067 C-136.38346747 215.63369101 -133.74040273 218.31192471 -131.1015625 220.99438477 C-129.15794923 222.9680125 -127.2083145 224.93552729 -125.2578125 226.90234375 C-124.65889191 227.51472397 -124.05997131 228.12710419 -123.44290161 228.75804138 C-121.99944092 230.21029552 -120.50422372 231.61078013 -119 233 C-118.34 233 -117.68 233 -117 233 C-117 233.66 -117 234.32 -117 235 C-116.34 235 -115.68 235 -115 235 C-115 235.66 -115 236.32 -115 237 C-113.58352329 238.4323278 -113.58352329 238.4323278 -111.6875 239.9375 C-105.63140221 245.08731555 -100.13950699 250.8013974 -94.56347656 256.45703125 C-88.02655513 263.114825 -88.02655513 263.114825 -81.1171875 269.37890625 C-77.50456001 272.46741721 -74.16149552 275.77685256 -70.8203125 279.15234375 C-70.27646912 279.70169586 -69.73262573 280.25104797 -69.17230225 280.81704712 C-66.90846994 283.10864708 -64.64845591 285.40393791 -62.39257812 287.70336914 C-60.7269587 289.39900186 -59.05532413 291.08851301 -57.3828125 292.77734375 C-56.87138702 293.30222885 -56.35996155 293.82711395 -55.83303833 294.36790466 C-54.59282171 295.61695159 -53.30066105 296.81402517 -52 298 C-51.34 298 -50.68 298 -50 298 C-50 298.66 -50 299.32 -50 300 C-49.34 300 -48.68 300 -48 300 C-48 300.66 -48 301.32 -48 302 C-46.58352329 303.4323278 -46.58352329 303.4323278 -44.6875 304.9375 C-40.44600343 308.52645864 -36.55647027 312.3801609 -32.68237305 316.35522461 C-29.27295076 319.99884333 -29.27295076 319.99884333 -24.6171875 321.09765625 C-23.71226562 321.08605469 -22.80734375 321.07445312 -21.875 321.0625 C-20.96492187 321.05347656 -20.05484375 321.04445313 -19.1171875 321.03515625 C-18.41851562 321.02355469 -17.71984375 321.01195312 -17 321 C-18.61724151 316.91792655 -21.54384801 314.19601937 -24.625 311.1875 C-25.12128906 310.69185547 -25.61757813 310.19621094 -26.12890625 309.68554688 C-28.90223133 306.94397743 -31.75135362 304.33297049 -34.71289062 301.79589844 C-38.97735495 298.07620729 -42.96363909 294.13096749 -46.9296875 290.09765625 C-48.39830965 288.61640969 -49.86706332 287.13529352 -51.3359375 285.65429688 C-53.62233412 283.34291907 -55.90708281 281.02995354 -58.18945312 278.71459961 C-60.41106047 276.46297693 -62.63869405 274.21746068 -64.8671875 271.97265625 C-65.55360321 271.27278091 -66.24001892 270.57290558 -66.94723511 269.8518219 C-67.58194733 269.21373093 -68.21665955 268.57563995 -68.87060547 267.91821289 C-69.42827606 267.35308487 -69.98594666 266.78795685 -70.56051636 266.20570374 C-71.94258399 264.78596323 -71.94258399 264.78596323 -74 265 C-74 264.34 -74 263.68 -74 263 C-75.39969727 261.58472017 -75.39969727 261.58472017 -77.28125 260.09375 C-80.85608202 257.05388404 -84.22838144 253.86158175 -87.53125 250.53125 C-88.0156958 250.04350098 -88.5001416 249.55575195 -88.99926758 249.05322266 C-91.00574647 247.02864959 -93.00737857 244.99931509 -95.00927734 242.97021484 C-101.8161357 236.036338 -101.8161357 236.036338 -109 229.5 C-115.01444996 224.3615007 -120.45752246 218.59740606 -126.00927734 212.97021484 C-131.22431913 207.69076891 -136.44871503 202.50773001 -142.09667969 197.68505859 C-146.46784749 193.81515093 -150.46263127 189.53213567 -154.52734375 185.34570312 C-155.54634766 184.31026367 -155.54634766 184.31026367 -156.5859375 183.25390625 C-157.49931885 182.31526733 -157.49931885 182.31526733 -158.43115234 181.35766602 C-161.93386368 178.32645254 -164.05690218 181.52160184 -167 184 Z " fill="#F5F5F5" transform="translate(395,73)"/>
<path d="M0 0 C0.76027496 -0.00133942 1.52054993 -0.00267883 2.30386353 -0.00405884 C14.39008239 0.00055866 25.95059512 0.81385413 37.8125 3.25 C39.32391543 3.54064431 40.83563506 3.82971117 42.34765625 4.1171875 C45.84400688 4.79133982 49.3302375 5.5060621 52.8125 6.25 C54.38159481 10.24769378 53.19824238 13.25303602 52 17.25 C51.64292969 18.466875 51.28585937 19.68375 50.91796875 20.9375 C50.04176144 23.56302578 49.07877335 25.81110373 47.8125 28.25 C42.86666713 27.7729763 38.06567684 27.11592747 33.19799805 26.09399414 C-9.12081115 17.79569979 -54.27821539 26.94361217 -90.203125 50.48046875 C-97.23776024 55.26339572 -103.73939473 60.71452803 -110.1875 66.25 C-110.7227832 66.70407227 -111.25806641 67.15814453 -111.80957031 67.62597656 C-118.77877495 73.56804568 -124.64165093 79.97399565 -130.1875 87.25 C-130.62594238 87.81879883 -131.06438477 88.38759766 -131.51611328 88.97363281 C-151.26854649 114.6967665 -166.19965367 146.32178909 -167.1875 179.25 C-167.21328125 179.99378906 -167.2390625 180.73757812 -167.265625 181.50390625 C-168.04548771 207.04441002 -165.25248859 241.09138236 -149.515625 262.52734375 C-147.36783921 266.93030461 -147.69576352 271.47776644 -147.625 276.3125 C-147.4237819 283.64979482 -147.10845172 290.65366666 -145.58984375 297.84765625 C-145.11593805 300.67728734 -145.12515554 303.38631093 -145.1875 306.25 C-147.3984375 306.5859375 -147.3984375 306.5859375 -150.1875 306.25 C-178.20788619 279.18594099 -190.57406204 233.15423339 -191.34375 195.57421875 C-191.40054981 190.12981754 -191.318223 184.69272986 -191.1875 179.25 C-191.16042969 177.42275391 -191.16042969 177.42275391 -191.1328125 175.55859375 C-189.53997583 136.62779168 -171.30214102 99.04381372 -147.1875 69.25 C-146.4759375 68.30898437 -145.764375 67.36796875 -145.03125 66.3984375 C-144.11859375 65.33496094 -144.11859375 65.33496094 -143.1875 64.25 C-142.5275 64.25 -141.8675 64.25 -141.1875 64.25 C-140.960625 63.693125 -140.73375 63.13625 -140.5 62.5625 C-138.81199964 59.58840412 -136.72073483 57.52991135 -134.1875 55.25 C-133.5275 55.25 -132.8675 55.25 -132.1875 55.25 C-132.1875 54.59 -132.1875 53.93 -132.1875 53.25 C-104.53278983 23.84076139 -62.23550155 7.03643093 -23.1875 1.25 C-22.10992432 1.07799072 -21.03234863 0.90598145 -19.92211914 0.72875977 C-13.31137232 -0.11870539 -6.65550499 0.00688837 0 0 Z " fill="#F3F3F3" transform="translate(249.1875,60.75)"/>
<path d="M0 0 C-0.33 1.65 -0.66 3.3 -1 5 C-11.50819564 4.0921228 -11.50819564 4.0921228 -16.0625 3.4375 C-32.71037373 1.58773625 -48.9440193 4.86437763 -64 12 C-64.82628906 12.39058594 -65.65257812 12.78117187 -66.50390625 13.18359375 C-68.67835623 14.26388586 -68.67835623 14.26388586 -70.59082031 15.5390625 C-73 17 -73 17 -76.02416992 18.29516602 C-79.90920992 20.36562935 -82.78146195 22.12383009 -85 26 C-86.99596725 34.59036501 -85.99997046 43.88726231 -85.625 52.625 C-85.47947499 56.27372638 -85.35273467 59.91783011 -85.28842163 63.56893921 C-85.24806144 65.83303242 -85.161462 68.09690914 -85.02236938 70.35708618 C-84.96250175 73.52938941 -85.03138694 75.97469701 -86 79 C-88.97751869 82.05794483 -92.26106788 83.99301642 -96 86 C-97.2104818 86.79625759 -98.41263097 87.60550309 -99.6015625 88.43359375 C-100.59929687 89.09488281 -101.59703125 89.75617188 -102.625 90.4375 C-104.16027344 91.45650391 -104.16027344 91.45650391 -105.7265625 92.49609375 C-106.47679687 92.99238281 -107.22703125 93.48867187 -108 94 C-108.66 93.67 -109.32 93.34 -110 93 C-110.33 79.8 -110.66 66.6 -111 53 C-118.00252248 62.46749742 -118.00252248 62.46749742 -118.48046875 72.55859375 C-118.4472729 74.34437744 -118.41541268 76.13018637 -118.38476562 77.91601562 C-118.29573941 80.67975238 -118.18735162 83.44052773 -118.05200195 86.20239258 C-117.33470013 102.56065718 -117.33470013 102.56065718 -121.56689453 107.58764648 C-124.44587117 110.43163883 -127.67061921 112.70544484 -131 115 C-132.52479315 116.36870616 -134.03128262 117.75878731 -135.5 119.1875 C-138.42831513 121.92958456 -138.66208218 122 -143 122 C-143 112.1 -143 102.2 -143 92 C-148.16048323 101.40601149 -148.16048323 101.40601149 -150.3125 110.75 C-150.44527344 111.91144531 -150.57804687 113.07289063 -150.71484375 114.26953125 C-150.97123189 117.62365001 -151.14002833 120.96614861 -151.2800293 124.32617188 C-151.79817716 135.84530476 -151.79817716 135.84530476 -156 141 C-157.46077214 142.93566194 -158.91882141 144.87338003 -160.375 146.8125 C-161.16003906 147.83601562 -161.94507813 148.85953125 -162.75390625 149.9140625 C-165.36542185 153.50205785 -167.53386359 157.22141884 -169.61328125 161.13671875 C-171.30311945 163.40729008 -172.30616977 163.45999652 -175 164 C-175.07551964 157.97585635 -175.1292311 151.9520025 -175.16479492 145.92749023 C-175.17965795 143.88837878 -175.19995419 141.84929792 -175.22631836 139.81030273 C-175.73564471 99.33383775 -164.98615234 67.68228279 -137 38 C-136.32839844 37.26394531 -135.65679687 36.52789062 -134.96484375 35.76953125 C-125.00849015 25.25487745 -112.50536276 17.16403545 -100 10 C-99.09636719 9.47921875 -98.19273437 8.9584375 -97.26171875 8.421875 C-68.78546406 -6.88360842 -30.33107313 -12.73905071 0 0 Z " fill="#F5F5F5" transform="translate(278,105)"/>
<path d="M0 0 C0.66 1.65 1.32 3.3 2 5 C-4.75849272 12.94122895 -11.73030111 20.16542133 -19.95703125 26.59375 C-24.62303198 30.28342452 -29.18683222 34.09649348 -33.75952148 37.90087891 C-37.81340773 41.25696118 -41.9284472 44.49295289 -46.15527344 47.62841797 C-48.73702364 49.54798819 -51.27214495 51.52609895 -53.8125 53.5 C-66.14728584 63.02647708 -78.78723786 72.15135992 -91.44238281 81.24536133 C-96.32632092 84.76391463 -101.14353537 88.36018235 -105.9375 92 C-112.67665404 97.11063883 -119.603223 101.9140483 -126.61889648 106.63671875 C-130.55059438 109.28874647 -134.30957956 112.01700839 -138 115 C-140.6226593 116.90805522 -143.28021385 118.76558881 -145.9375 120.625 C-147.4637649 121.69759909 -148.98980339 122.7705204 -150.515625 123.84375 C-151.27294922 124.37613281 -152.03027344 124.90851563 -152.81054688 125.45703125 C-156.52194239 128.0725553 -160.21578336 130.71243107 -163.90673828 133.35668945 C-166.72560432 135.37608549 -169.5482228 137.38943581 -172.3828125 139.38671875 C-181.13653857 145.56846731 -189.67981137 152.00261636 -198.14941406 158.56787109 C-199.68544285 159.75657094 -201.22854858 160.93611941 -202.7734375 162.11328125 C-210.6454081 168.21994283 -217.86283809 175.06163935 -225 182 C-225.50176758 182.4842041 -226.00353516 182.9684082 -226.52050781 183.46728516 C-245.64787273 202.19923504 -258.43469384 227.28588419 -265 253 C-266.32 252.67 -267.64 252.34 -269 252 C-270.3035655 218.83149997 -257.34118661 191.68733229 -235.27197266 167.67211914 C-229.77668755 161.75575251 -224.14531533 156.24188823 -218 151 C-216.87026241 150.01527587 -215.74131509 149.02964413 -214.61328125 148.04296875 C-207.54093426 141.90809923 -200.3191779 136.06705283 -192.85449219 130.41601562 C-189.96353287 128.2085954 -187.10250995 125.96316424 -184.23754883 123.72216797 C-177.9046723 118.77078388 -171.55763937 113.86420761 -165.0234375 109.1796875 C-160.88547312 106.19650388 -156.78938613 103.15751031 -152.6875 100.125 C-145.87276634 95.09362982 -139.01873301 90.12461608 -132.11328125 85.21875 C-129.29001047 83.20668249 -126.48543879 81.17206766 -123.6875 79.125 C-118.42220309 75.28379655 -113.09607829 71.53233875 -107.76391602 67.78491211 C-103.13019213 64.52213665 -98.53106526 61.21582773 -93.94995117 57.87963867 C-87.76690479 53.37951324 -81.59336711 48.95428243 -75.0859375 44.9296875 C-72.50750517 43.31735133 -69.95778239 41.67389263 -67.4140625 40.0078125 C-66.56634277 39.45287109 -65.71862305 38.89792969 -64.84521484 38.32617188 C-63.1854597 37.23819691 -61.52682003 36.14851711 -59.86962891 35.05664062 C-54.94911622 31.83926761 -49.95705436 28.77184441 -44.8984375 25.77734375 C-39.39637284 22.51159565 -34.02595639 19.08912088 -28.7109375 15.52734375 C-27.68141968 14.83910522 -27.68141968 14.83910522 -26.63110352 14.13696289 C-23.82422339 12.25769389 -21.01972036 10.37524506 -18.22509766 8.4777832 C-16.14380485 7.06725565 -14.05334584 5.67130945 -11.9609375 4.27734375 C-11.02028946 3.63066994 -11.02028946 3.63066994 -10.06063843 2.97093201 C-6.58318518 0.67139645 -4.2024908 -0.54406803 0 0 Z " fill="#F1F1F1" transform="translate(375,69)"/>
<path d="M0 0 C1.32 0 2.64 0 4 0 C18.76256458 26.80225613 29.91707409 56.60566459 30.23828125 87.56640625 C30.2480751 88.35451187 30.25786896 89.14261749 30.26795959 89.9546051 C30.44244514 107.63975243 30.22495189 124.71697686 26 142 C25.78037598 142.90298828 25.56075195 143.80597656 25.33447266 144.73632812 C21.27903979 160.88917749 15.74027441 176.36847155 7.875 191.0625 C7.46733398 191.84326904 7.05966797 192.62403809 6.63964844 193.4284668 C3.75804775 198.5945326 3.75804775 198.5945326 0.6484375 200.2578125 C-3.27665156 199.87572418 -6.06105743 197.96602865 -9.25 195.8125 C-9.88679688 195.41224609 -10.52359375 195.01199219 -11.1796875 194.59960938 C-15.74490103 191.60308092 -15.74490103 191.60308092 -16.80395508 189.09936523 C-17.05234675 186.43943998 -16.44299041 185.32114962 -15.12109375 183.015625 C-14.69731445 182.25427246 -14.27353516 181.49291992 -13.83691406 180.70849609 C-13.1442041 179.49154053 -13.1442041 179.49154053 -12.4375 178.25 C9.12107708 138.62092459 12.26340831 92.0781482 -0.04345703 49.04833984 C-3.55084232 37.87089912 -8.25603936 26.49950058 -15.1015625 16.9375 C-16 15 -16 15 -16.0859375 12.546875 C-14.46659296 8.74898781 -11.42921953 7.25487834 -8 5.25 C-6.70798725 4.46411035 -5.41630335 3.67767973 -4.125 2.890625 C-3.09375 2.26671875 -2.0625 1.6428125 -1 1 C-0.67 0.67 -0.34 0.34 0 0 Z " fill="#F6F6F6" transform="translate(412,154)"/>
<path d="M0 0 C0.86154694 0.00005035 1.72309387 0.00010071 2.61074829 0.00015259 C5.48672978 0.0038101 8.36237068 0.02288801 11.23828125 0.04296875 C13.25480016 0.05055637 15.27132043 0.05779199 17.2878418 0.06469727 C34.48079366 0.14247306 51.67255052 0.39121824 68.86328125 0.66796875 C70.14117523 0.68743561 71.41906921 0.70690247 72.73568726 0.72695923 C76.3577678 0.78376714 79.97964719 0.84762911 83.6015625 0.9140625 C84.69731598 0.9307901 85.79306946 0.9475177 86.92202759 0.9647522 C88.41335709 0.99464737 88.41335709 0.99464737 89.93481445 1.02514648 C90.8064473 1.04069077 91.67808014 1.05623505 92.5761261 1.07225037 C94.55078125 1.23046875 94.55078125 1.23046875 95.55078125 2.23046875 C95.59171062 4.56344308 95.59319848 6.897521 95.55078125 9.23046875 C90.66983752 11.80570227 85.98514232 11.46055978 80.61987305 11.36572266 C79.62427872 11.35626114 78.62868439 11.34679962 77.60292053 11.33705139 C74.3184248 11.30342514 71.03431054 11.25529521 67.75 11.20703125 C65.47029105 11.18085885 63.19057153 11.15559227 60.9108429 11.13119507 C54.91513688 11.06459598 48.91965343 10.98569156 42.9241333 10.90423584 C36.80432671 10.82326537 30.68438969 10.75391658 24.56445312 10.68359375 C12.55973949 10.54393512 0.55522889 10.39127818 -11.44921875 10.23046875 C-12.80361543 7.5216754 -12.51423326 5.22113607 -12.44921875 2.23046875 C-8.56883191 -0.36782643 -4.48712043 -0.03981638 0 0 Z " fill="#F8F7F7" transform="translate(311.44921875,235.76953125)"/>
<path d="M0 0 C0.78405212 -0.00335861 1.56810425 -0.00671722 2.37591553 -0.01017761 C4.97010885 -0.01968369 7.56423761 -0.0216305 10.15844727 -0.02270508 C11.96061734 -0.02591769 13.76278715 -0.02928177 15.56495667 -0.03279114 C19.34360356 -0.0387814 23.12222759 -0.04063112 26.90087891 -0.04003906 C31.7443126 -0.0399374 36.58759984 -0.05359435 41.4309988 -0.07081127 C45.15331192 -0.08192548 48.87558955 -0.08395846 52.59791756 -0.08342934 C54.38370329 -0.08461014 56.16948991 -0.08903756 57.95525932 -0.0967617 C60.45204837 -0.1065507 62.9485184 -0.103688 65.4453125 -0.09765625 C66.18362808 -0.10327576 66.92194366 -0.10889526 67.68263245 -0.11468506 C71.3795088 -0.09197188 74.14685697 0.09686813 77.28735352 2.14526367 C77.32977075 4.47821143 77.32828289 6.81228934 77.28735352 9.14526367 C75.26313005 11.16948713 71.08947757 10.30250157 68.31103516 10.30639648 C67.47529465 10.31136139 66.63955414 10.31632629 65.77848816 10.32144165 C63.00148713 10.33610046 60.2245432 10.34287104 57.44750977 10.34838867 C55.52558896 10.35413658 53.60366818 10.35989435 51.68174744 10.36566162 C47.64736665 10.37618188 43.61300586 10.38201799 39.57861328 10.38549805 C34.39856968 10.39098829 29.21878821 10.41502329 24.03882694 10.44347 C20.06781736 10.4620543 16.09687148 10.4672997 12.12582207 10.46883392 C10.21556602 10.47186997 8.30531135 10.47993028 6.39509773 10.4930191 C3.7275485 10.50999385 1.06064709 10.50822072 -1.60693359 10.50170898 C-2.40233551 10.51092377 -3.19773743 10.52013855 -4.01724243 10.52963257 C-6.213974 10.51275635 -6.213974 10.51275635 -9.71264648 10.14526367 C-11.71264648 7.14526367 -11.71264648 7.14526367 -11.33764648 3.95776367 C-11.13139648 3.02963867 -10.92514648 2.10151367 -10.71264648 1.14526367 C-7.08950677 -0.06244957 -3.77168626 -0.00230877 0 0 Z " fill="#FBFBFB" transform="translate(329.712646484375,280.854736328125)"/>
<path d="M0 0 C1.1546727 -0.00315216 2.3093454 -0.00630432 3.49900818 -0.009552 C4.75625198 -0.00752777 6.01349579 -0.00550354 7.30883789 -0.00341797 C8.5900502 -0.00437469 9.87126251 -0.00533142 11.19129944 -0.00631714 C13.90749309 -0.00779395 16.62365391 -0.00564045 19.33984375 -0.00097656 C22.82484272 0.00471506 26.30976458 0.00144524 29.7947607 -0.00454903 C33.11195931 -0.00902856 36.4291371 -0.00589319 39.74633789 -0.00341797 C41.00155746 -0.0054422 42.25677704 -0.00746643 43.55003357 -0.009552 C44.70785843 -0.00639984 45.86568329 -0.00324768 47.05859375 0 C48.59295326 0.00119339 48.59295326 0.00119339 50.15830994 0.00241089 C52.59399414 0.12939453 52.59399414 0.12939453 54.59399414 1.12939453 C54.59399414 3.76939453 54.59399414 6.40939453 54.59399414 9.12939453 C51.9917515 10.43051585 50.08027688 10.26357411 47.16625977 10.2746582 C46.03168335 10.28103806 44.89710693 10.28741791 43.72814941 10.29399109 C42.49794067 10.29510391 41.26773193 10.29621674 40.00024414 10.29736328 C38.74264282 10.30069168 37.4850415 10.30402008 36.18933105 10.30744934 C33.52616851 10.31251965 30.86310798 10.31528928 28.19995117 10.31469727 C24.78330328 10.31459553 21.36686268 10.32825984 17.95026398 10.34546947 C14.69609831 10.35924258 11.44193503 10.35867758 8.18774414 10.35986328 C6.34243103 10.37064156 6.34243103 10.37064156 4.45983887 10.38163757 C2.75797424 10.37702263 2.75797424 10.37702263 1.02172852 10.37231445 C0.01960327 10.37373947 -0.98252197 10.37516449 -2.01501465 10.37663269 C-4.40600586 10.12939453 -4.40600586 10.12939453 -6.40600586 8.12939453 C-6.59350586 4.56689453 -6.59350586 4.56689453 -6.40600586 1.12939453 C-4.67746831 -0.59914302 -2.35479539 0.00183293 0 0 Z " fill="#F0F0F0" transform="translate(352.406005859375,264.87060546875)"/>
<path d="M0 0 C1.09461044 -0.00637985 2.18922089 -0.0127597 3.31700134 -0.01933289 C5.10443504 -0.02100212 5.10443504 -0.02100212 6.92797852 -0.02270508 C8.14260269 -0.02603348 9.35722687 -0.02936188 10.60865784 -0.03279114 C13.18360006 -0.03786556 15.75854888 -0.04019931 18.33349609 -0.04003906 C22.28632374 -0.04222496 26.23887222 -0.06037394 30.19165039 -0.0793457 C32.68709214 -0.08227955 35.18253522 -0.0842644 37.67797852 -0.08520508 C38.86757675 -0.09239059 40.05717499 -0.09957611 41.28282166 -0.10697937 C42.38058426 -0.10390274 43.47834686 -0.10082611 44.609375 -0.09765625 C45.57898666 -0.09908127 46.54859833 -0.10050629 47.54759216 -0.10197449 C49.86938477 0.14526367 49.86938477 0.14526367 51.86938477 2.14526367 C52.11938477 5.14526367 52.11938477 5.14526367 51.86938477 8.14526367 C49.29379349 10.72085495 48.29621797 10.39805046 44.71704102 10.40405273 C43.64252686 10.41035706 42.5680127 10.41666138 41.4609375 10.42315674 C40.2963501 10.41910828 39.1317627 10.41505981 37.93188477 10.41088867 C36.74087158 10.41280212 35.5498584 10.41471558 34.32275391 10.41668701 C31.80086049 10.41804997 29.27896008 10.41434583 26.75708008 10.40600586 C22.88550128 10.3953082 19.01438654 10.40589773 15.14282227 10.41870117 C12.69750874 10.4173796 10.2521955 10.41481725 7.80688477 10.41088867 C6.06000366 10.41696136 6.06000366 10.41696136 4.27783203 10.42315674 C2.66606079 10.41370026 2.66606079 10.41370026 1.02172852 10.40405273 C-0.40151733 10.40166595 -0.40151733 10.40166595 -1.85351562 10.39923096 C-4.13061523 10.14526367 -4.13061523 10.14526367 -6.13061523 8.14526367 C-6.31811523 4.58276367 -6.31811523 4.58276367 -6.13061523 1.14526367 C-4.44036754 -0.54498403 -2.31524177 0.0091093 0 0 Z " fill="#F0F0F0" transform="translate(355.130615234375,219.854736328125)"/>
<path d="M0 0 C-0.33 2.64 -0.66 5.28 -1 8 C-8.39719429 8.99101167 -15.79836677 9.1381596 -23.25 9.1875 C-24.66949951 9.20683594 -24.66949951 9.20683594 -26.11767578 9.2265625 C-31.47603918 9.23411082 -35.94994826 8.83576205 -41 7 C-42 6 -42 6 -42.1875 3.5625 C-42 1 -42 1 -40 -1 C-37.24297265 -1.27030049 -34.5797861 -1.42199105 -31.81640625 -1.484375 C-31.0050975 -1.5084845 -30.19378876 -1.53259399 -29.3578949 -1.55743408 C-27.64066211 -1.60576353 -25.92328416 -1.64914812 -24.20581055 -1.68798828 C-21.57601117 -1.74968303 -18.94748948 -1.83275292 -16.31835938 -1.91796875 C-14.65107548 -1.96223018 -12.98375781 -2.00524057 -11.31640625 -2.046875 C-10.52883438 -2.07279724 -9.74126251 -2.09871948 -8.92982483 -2.12542725 C-5.05582886 -2.19781305 -3.30565772 -2.20377181 0 0 Z " fill="#E9E9E9" transform="translate(402,306)"/>
<path d="M0 0 C1.02814316 0.00222061 2.05628632 0.00444122 3.11558533 0.00672913 C4.85727745 0.00684242 4.85727745 0.00684242 6.63415527 0.00695801 C8.52943214 0.01469994 8.52943214 0.01469994 10.46299744 0.02259827 C12.39193092 0.02472069 12.39193092 0.02472069 14.35983276 0.02688599 C17.78427561 0.03071034 21.20867628 0.0405399 24.63310242 0.05158997 C28.12522308 0.06180587 31.61735053 0.06638399 35.10948181 0.07142639 C41.96561897 0.08216225 48.82172806 0.09923767 55.67784119 0.12025452 C53.93432946 2.33675975 53.06504965 3.06320941 50.22906494 3.48101807 C49.25865768 3.47435623 48.28825043 3.4676944 47.28843689 3.46083069 C46.18752213 3.4606041 45.08660736 3.4603775 43.95233154 3.46014404 C42.76475754 3.44466019 41.57718353 3.42917633 40.35362244 3.41322327 C39.13708481 3.40897842 37.92054718 3.40473358 36.66714478 3.40036011 C32.77465348 3.38354302 28.88267648 3.3458841 24.99034119 3.30775452 C22.35428095 3.29271165 19.7182126 3.27902256 17.08213806 3.26673889 C10.61386309 3.23362951 4.14588887 3.18339956 -2.32215881 3.12025452 C-2.32215881 4.77025452 -2.32215881 6.42025452 -2.32215881 8.12025452 C-2.65215881 8.12025452 -2.98215881 8.12025452 -3.32215881 8.12025452 C-3.36457605 5.78730676 -3.36308819 3.45322885 -3.32215881 1.12025452 C-2.32215881 0.12025452 -2.32215881 0.12025452 0 0 Z " fill="#B9B8B7" transform="translate(349.32215881347656,264.87974548339844)"/>
<path d="M0 0 C0.74886475 0.00523682 1.49772949 0.01047363 2.26928711 0.01586914 C3.07817383 0.0190918 3.88706055 0.02231445 4.72045898 0.02563477 C5.5705957 0.03401367 6.42073242 0.04239258 7.29663086 0.05102539 C8.15063477 0.05553711 9.00463867 0.06004883 9.88452148 0.06469727 C12.00108749 0.07652166 14.11761771 0.0944577 16.23413086 0.11352539 C16.33178711 6.26586914 16.33178711 6.26586914 16.23413086 8.11352539 C14.42225244 9.92540381 11.96435576 9.24587001 9.55639648 9.25024414 C8.4378125 9.24444336 8.4378125 9.24444336 7.29663086 9.23852539 C6.18384766 9.24432617 6.18384766 9.24432617 5.04858398 9.25024414 C-0.51259912 9.2401604 -0.51259912 9.2401604 -2.76586914 8.11352539 C-2.80828637 5.78057764 -2.80679851 3.44649972 -2.76586914 1.11352539 C-1.76586914 0.11352539 -1.76586914 0.11352539 0 0 Z " fill="#F8F8F8" transform="translate(384.765869140625,202.886474609375)"/>
<path d="M0 0 C0.94735519 0.00141495 1.89471039 0.0028299 2.87077332 0.00428772 C5.8865377 0.00987014 8.90222693 0.02241943 11.91796875 0.03515625 C13.9667958 0.04017352 16.01562402 0.04473603 18.06445312 0.04882812 C23.07815381 0.05983382 28.09179855 0.07708637 33.10546875 0.09765625 C32.40368998 3.33252219 31.74070381 4.9894682 29.10546875 7.09765625 C28.44546875 7.09765625 27.78546875 7.09765625 27.10546875 7.09765625 C27.43546875 5.77765625 27.76546875 4.45765625 28.10546875 3.09765625 C27.15631592 3.10551147 27.15631592 3.10551147 26.18798828 3.11352539 C12.78505146 3.20927797 -0.52276171 3.0431349 -13.89453125 2.09765625 C-14.22453125 3.08765625 -14.55453125 4.07765625 -14.89453125 5.09765625 C-17.89453125 7.09765625 -17.89453125 7.09765625 -20.89453125 7.09765625 C-20.89453125 6.43765625 -20.89453125 5.77765625 -20.89453125 5.09765625 C-14.06197577 -0.14593284 -8.26158069 -0.04661342 0 0 Z " fill="#CAC7C9" transform="translate(395.89453125,106.90234375)"/>
<path d="M0 0 C1.18571594 -0.00021904 1.18571594 -0.00021904 2.39538574 -0.0004425 C5.00881695 0.0002543 7.62217694 0.00803584 10.2355957 0.01586914 C12.04734763 0.01773415 13.85910005 0.01915766 15.67085266 0.02015686 C20.44004711 0.02397554 25.20921113 0.03380031 29.97839355 0.04486084 C34.84472237 0.0550889 39.71105611 0.05965747 44.57739258 0.06469727 C54.12623408 0.07542313 63.67505299 0.09249179 73.22387695 0.11352539 C73.22387695 0.44352539 73.22387695 0.77352539 73.22387695 1.11352539 C72.42506104 1.13858154 71.62624512 1.1636377 70.80322266 1.18945312 C67.73768978 1.28642608 64.67220597 1.38480426 61.60675049 1.48419189 C60.2226097 1.52887319 58.8384542 1.57310081 57.45428467 1.61688232 C47.56307149 1.92417924 47.56307149 1.92417924 37.6809082 2.43774414 C21.8342242 3.4358365 6.07335713 2.76878186 -9.77612305 2.11352539 C-10.10612305 3.76352539 -10.43612305 5.41352539 -10.77612305 7.11352539 C-11.90112305 3.36352539 -11.90112305 3.36352539 -10.77612305 1.11352539 C-7.13055296 -0.10166464 -3.79421083 -0.01827055 0 0 Z " fill="#848484" transform="translate(329.776123046875,280.886474609375)"/>
<path d="M0 0 C0.33 0 0.66 0 1 0 C1 17.16 1 34.32 1 52 C1.66 50.68 2.32 49.36 3 48 C3.66 48 4.32 48 5 48 C5.12375 47.401875 5.2475 46.80375 5.375 46.1875 C6 44 6 44 8 41 C8.66 41 9.32 41 10 41 C8.6825683 44.54887104 7.12916347 47.64151254 5.0625 50.8125 C4.55847656 51.60269531 4.05445312 52.39289063 3.53515625 53.20703125 C3.02855469 53.79871094 2.52195312 54.39039063 2 55 C1.01 55 0.02 55 -1 55 C-1.02487172 48.77441696 -1.04294084 42.54886339 -1.05493164 36.32324219 C-1.05993486 34.20897924 -1.06673951 32.09471971 -1.07543945 29.98046875 C-1.08768183 26.92707472 -1.09326858 23.87372675 -1.09765625 20.8203125 C-1.10281754 19.88760529 -1.10797882 18.95489807 -1.11329651 17.993927 C-1.11380464 11.9380375 -0.71646734 6.01312644 0 0 Z " fill="#CFCFCF" transform="translate(104,214)"/>
<path d="M0 0 C0.66 0 1.32 0 2 0 C2 13.86 2 27.72 2 42 C1.34 42 0.68 42 0 42 C-0.33 29.79 -0.66 17.58 -1 5 C-1.66 5.66 -2.32 6.32 -3 7 C-3 5.68 -3 4.36 -3 3 C-2.34 3 -1.68 3 -1 3 C-0.67 2.01 -0.34 1.02 0 0 Z " fill="#A3A1A2" transform="translate(168,153)"/>
<path d="M0 0 C1.79236067 0.47656412 3.58386897 0.95633498 5.375 1.4375 C6.37273437 1.70433594 7.37046875 1.97117187 8.3984375 2.24609375 C11 3 11 3 13 4 C12.67 5.65 12.34 7.3 12 9 C5.64780958 8.45118943 -0.67873638 7.83488387 -7 7 C-7 6.67 -7 6.34 -7 6 C-3.7 5.67 -0.4 5.34 3 5 C2.01 4.34 1.02 3.68 0 3 C0 2.01 0 1.02 0 0 Z " fill="#C3C3C3" transform="translate(265,101)"/>
<path d="M0 0 C0.33 0 0.66 0 1 0 C1 2.31 1 4.62 1 7 C-2.49827224 8.58450882 -5.14121362 9.23637959 -8.97387695 9.13525391 C-9.93449539 9.11508209 -10.89511383 9.09491028 -11.88484192 9.0741272 C-12.9089769 9.04193085 -13.93311188 9.0097345 -14.98828125 8.9765625 C-16.04661667 8.95153656 -17.10495209 8.92651062 -18.19535828 8.90072632 C-21.56807327 8.81870451 -24.94018712 8.72204498 -28.3125 8.625 C-30.60218917 8.56674231 -32.89190284 8.50943942 -35.18164062 8.453125 C-40.78809169 8.31315223 -46.39412032 8.16116683 -52 8 C-52 7.67 -52 7.34 -52 7 C-51.39056549 6.99191315 -50.78113098 6.98382629 -50.15322876 6.97549438 C-43.82687016 6.88963155 -37.50083154 6.79013673 -31.17480469 6.68261719 C-28.81190349 6.64426473 -26.44894266 6.60942308 -24.0859375 6.578125 C-20.6950952 6.53261034 -17.30466576 6.47459381 -13.9140625 6.4140625 C-12.32182358 6.39673569 -12.32182358 6.39673569 -10.69741821 6.37905884 C-9.22611954 6.3492543 -9.22611954 6.3492543 -7.72509766 6.31884766 C-6.85905914 6.30552399 -5.99302063 6.29220032 -5.10073853 6.2784729 C-2.78242358 6.18779287 -2.78242358 6.18779287 -1 4 C-0.3574765 1.93125966 -0.3574765 1.93125966 0 0 Z " fill="#EFEDEF" transform="translate(406,238)"/>
<path d="M0 0 C0.66 0 1.32 0 2 0 C2.66 1.65 3.32 3.3 4 5 C3.67 5 3.34 5 3 5 C2.67 22.16 2.34 39.32 2 57 C1.67 57 1.34 57 1 57 C0.67 38.19 0.34 19.38 0 0 Z " fill="#DFDFDF" transform="translate(190,276)"/>
<path d="M0 0 C0.33 0 0.66 0 1 0 C0.99363525 0.87213135 0.98727051 1.7442627 0.98071289 2.64282227 C0.97355323 5.90740879 0.99779329 9.16873304 1.04272461 12.43286133 C1.05579127 13.84002738 1.05666558 15.24736536 1.04467773 16.65454102 C0.78306909 24.95597192 0.78306909 24.95597192 3.62060547 32.52685547 C5.33003366 34.23628366 6.98517384 35.67068093 9 37 C8.01 37.66 7.02 38.32 6 39 C2.00103944 35.67802882 0.22929415 33.65684248 -0.49511719 28.42236328 C-0.66613754 24.13191785 -0.52381941 19.85158783 -0.375 15.5625 C-0.34486731 14.05278746 -0.3174973 12.54301711 -0.29296875 11.03320312 C-0.22722218 7.3542572 -0.12388573 3.67750033 0 0 Z " fill="#E6E6E6" transform="translate(191,334)"/>
<path d="M0 0 C-0.5590888 3.24271506 -1.4132178 4.93057424 -4 7 C-4.66 7 -5.32 7 -6 7 C-5.67 5.68 -5.34 4.36 -5 3 C-12.92 3 -20.84 3 -29 3 C-29 2.67 -29 2.34 -29 2 C-25.1044547 1.66324289 -21.20852178 1.33119542 -17.3125 1 C-16.20970703 0.90460938 -15.10691406 0.80921875 -13.97070312 0.7109375 C-12.90400391 0.62070313 -11.83730469 0.53046875 -10.73828125 0.4375 C-9.75899658 0.35371094 -8.77971191 0.26992187 -7.77075195 0.18359375 C-5.17018114 0.01127643 -2.6052455 -0.0332673 0 0 Z " fill="#EAE8E9" transform="translate(429,107)"/>
<path d="M0 0 C0.66 0 1.32 0 2 0 C2.33 3.63 2.66 7.26 3 11 C1.35 11 -0.3 11 -2 11 C-4.3125 8.5 -4.3125 8.5 -6 6 C-5.67 5.34 -5.34 4.68 -5 4 C-4.34 4.33 -3.68 4.66 -3 5 C-3 5.66 -3 6.32 -3 7 C-2.34 7 -1.68 7 -1 7 C-0.67 4.69 -0.34 2.38 0 0 Z " fill="#BEBDBD" transform="translate(101,356)"/>
<path d="M0 0 C0.66 1.32 1.32 2.64 2 4 C1.65066406 4.45890625 1.30132812 4.9178125 0.94140625 5.390625 C0.25884766 6.31101562 0.25884766 6.31101562 -0.4375 7.25 C-0.88996094 7.85328125 -1.34242188 8.4565625 -1.80859375 9.078125 C-3.06873688 11.11088048 -3.66444111 12.63690924 -4 15 C-3.67 15.99 -3.34 16.98 -3 18 C-4.32 17.34 -5.64 16.68 -7 16 C-6.40165275 11.85701333 -4.99335715 8.81805623 -2.9375 5.1875 C-2.11572266 3.72376953 -2.11572266 3.72376953 -1.27734375 2.23046875 C-0.85582031 1.49441406 -0.43429687 0.75835937 0 0 Z " fill="#BDBDBD" transform="translate(402,328)"/>
<path d="M0 0 C0.66 0 1.32 0 2 0 C1.731875 0.61875 1.46375 1.2375 1.1875 1.875 C-1.60046023 9.21173744 -3.36848577 16.16922359 -4 24 C-4.66 24 -5.32 24 -6 24 C-6.52110098 16.25586046 -5.70115267 10.82146751 -2 4 C-1.33056469 2.66805458 -0.66308004 1.33512062 0 0 Z " fill="#BFBFBF" transform="translate(131,199)"/>
<path d="M0 0 C0.33 0.66 0.66 1.32 1 2 C-13.59681093 5.62870159 -13.59681093 5.62870159 -21 4 C-21 3.34 -21 2.68 -21 2 C-14.07 1.34 -7.14 0.68 0 0 Z " fill="#C1C1C1" transform="translate(273,392)"/>
<path d="M0 0 C4.99479193 3.32986128 7.17132469 9.51837136 8.54296875 15.28125 C8.76420897 16.84596346 8.89488154 18.42322304 9 20 C6.1698087 16.61736896 4.4967219 12.90881541 2.8125 8.875 C2.53986328 8.24207031 2.26722656 7.60914063 1.98632812 6.95703125 C0 2.2675047 0 2.2675047 0 0 Z " fill="#C1C1C1" transform="translate(69,314)"/>
<path d="M0 0 C1.65 0 3.3 0 5 0 C5.33 1.32 5.66 2.64 6 4 C4.71186658 4.83878455 3.41936744 5.67086783 2.125 6.5 C1.40570313 6.9640625 0.68640625 7.428125 -0.0546875 7.90625 C-2 9 -2 9 -4 9 C-4 8.34 -4 7.68 -4 7 C-2.35 6.67 -0.7 6.34 1 6 C0.67 4.02 0.34 2.04 0 0 Z " fill="#C4C4C4" transform="translate(282,389)"/>
<path d="M0 0 C0.33 0 0.66 0 1 0 C0.84660156 1.1034375 0.69320312 2.206875 0.53515625 3.34375 C-0.09501676 8.3851341 -0.33760084 13.42686479 -0.5625 18.5 C-0.60568359 19.4178125 -0.64886719 20.335625 -0.69335938 21.28125 C-0.79833456 23.52072061 -0.90049248 25.76028092 -1 28 C-1.33 28 -1.66 28 -2 28 C-2.0580966 24.0833957 -2.09362893 20.16690237 -2.125 16.25 C-2.14175781 15.13882812 -2.15851563 14.02765625 -2.17578125 12.8828125 C-2.18222656 11.81289063 -2.18867188 10.74296875 -2.1953125 9.640625 C-2.20578613 8.65610352 -2.21625977 7.67158203 -2.22705078 6.65722656 C-1.99489618 3.94026889 -1.39036273 2.31887487 0 0 Z " fill="#8B8B8B" transform="translate(158,326)"/>
<path d="M0 0 C0.33 0.66 0.66 1.32 1 2 C-0.07972738 3.4194169 -1.16395863 4.8354083 -2.25 6.25 C-3.15492188 7.43335938 -3.15492188 7.43335938 -4.078125 8.640625 C-5.93182995 10.91631157 -7.88898954 12.96371558 -10 15 C-10.66 14.67 -11.32 14.34 -12 14 C-11.55269531 13.49210938 -11.10539063 12.98421875 -10.64453125 12.4609375 C-7.03713058 8.35357725 -3.47885075 4.21678879 0 0 Z " fill="#BEBEBE" transform="translate(143,233)"/>
<path d="M0 0 C0.33 0 0.66 0 1 0 C1 2.31 1 4.62 1 7 C-2.77222089 8.75163456 -5.666639 9.22490027 -9.8125 9.125 C-11.27623047 9.09792969 -11.27623047 9.09792969 -12.76953125 9.0703125 C-13.50558594 9.04710937 -14.24164063 9.02390625 -15 9 C-15 8.67 -15 8.34 -15 8 C-13.73542969 7.81824219 -13.73542969 7.81824219 -12.4453125 7.6328125 C-11.34960938 7.46523437 -10.25390625 7.29765625 -9.125 7.125 C-8.03445313 6.96257812 -6.94390625 6.80015625 -5.8203125 6.6328125 C-2.88067286 6.23743487 -2.88067286 6.23743487 -1 4 C-0.3574765 1.93125966 -0.3574765 1.93125966 0 0 Z " fill="#8F8F8F" transform="translate(406,238)"/>
<path d="M0 0 C0.33 0.66 0.66 1.32 1 2 C0.57847656 2.47050781 0.15695313 2.94101563 -0.27734375 3.42578125 C-0.82519531 4.04839844 -1.37304688 4.67101562 -1.9375 5.3125 C-2.48277344 5.92738281 -3.02804688 6.54226562 -3.58984375 7.17578125 C-5.20081559 9.05241958 -5.20081559 9.05241958 -6 12 C-6.66 12 -7.32 12 -8 12 C-8.33 12.99 -8.66 13.98 -9 15 C-9.66 15 -10.32 15 -11 15 C-9.52834523 11.77707606 -7.69245806 9.15273288 -5.5 6.375 C-4.8915625 5.59898437 -4.283125 4.82296875 -3.65625 4.0234375 C-2 2 -2 2 0 0 Z " fill="#C0C0C0" transform="translate(105,127)"/>
<path d="M0 0 C0 0.33 0 0.66 0 1 C-6.435 1.495 -6.435 1.495 -13 2 C-13.33 2.99 -13.66 3.98 -14 5 C-17 7 -17 7 -20 7 C-20 6.34 -20 5.68 -20 5 C-13.36746675 -0.09008366 -8.02430463 -0.15733931 0 0 Z " fill="#AAAAAA" transform="translate(395,107)"/>
<path d="M0 0 C2.25 -0.3125 2.25 -0.3125 5 0 C7.0625 2.25 7.0625 2.25 9 5 C10.31494512 6.35147138 11.64264858 7.69112542 13 9 C9.51375944 8.3543999 6.87501211 7.07639763 4 5 C4 4.01 4 3.02 4 2 C2.68 2 1.36 2 0 2 C0 1.34 0 0.68 0 0 Z " fill="#E2E1E1" transform="translate(159,398)"/>
<path d="M0 0 C0.66 0 1.32 0 2 0 C0.6744419 3.62276315 -0.94346955 6.63505348 -3.125 9.8125 C-3.93324219 10.99779297 -3.93324219 10.99779297 -4.7578125 12.20703125 C-5.16773437 12.79871094 -5.57765625 13.39039063 -6 14 C-6.99 13.67 -7.98 13.34 -9 13 C-8.34 13 -7.68 13 -7 13 C-6.34 11.02 -5.68 9.04 -5 7 C-4.34 7 -3.68 7 -3 7 C-2.814375 6.1028125 -2.814375 6.1028125 -2.625 5.1875 C-2 3 -2 3 0 0 Z " fill="#C3C3C3" transform="translate(112,255)"/>
<path d="M0 0 C3.15140423 0.34069235 4.60781561 0.58076841 6.8125 2.9375 C8 5 8 5 8 7 C8.99 7 9.98 7 11 7 C11 7.99 11 8.98 11 10 C7.81326038 8.59698853 5.67778594 6.92234929 3.25 4.4375 C2.63640625 3.81746094 2.0228125 3.19742187 1.390625 2.55859375 C0 1 0 1 0 0 Z " fill="#A2A2A2" transform="translate(353,368)"/>
<path d="M0 0 C0.33 0 0.66 0 1 0 C1.66 7.26 2.32 14.52 3 22 C2.34 22 1.68 22 1 22 C1 19.69 1 17.38 1 15 C0.34 15 -0.32 15 -1 15 C-0.67 10.05 -0.34 5.1 0 0 Z " fill="#DCDCDC" transform="translate(155,341)"/>
<path d="M0 0 C3.91841827 1.30613942 6.32640809 2.83129848 9 6 C9 6.66 9 7.32 9 8 C9.66 8 10.32 8 11 8 C11.33 8.99 11.66 9.98 12 11 C11.34 11 10.68 11 10 11 C10 10.34 10 9.68 10 9 C9.40703125 8.74476563 8.8140625 8.48953125 8.203125 8.2265625 C5.78775462 6.88183502 4.48788294 5.50785633 2.75 3.375 C2.22921875 2.74335938 1.7084375 2.11171875 1.171875 1.4609375 C0.78515625 0.97882813 0.3984375 0.49671875 0 0 Z " fill="#ADADAD" transform="translate(311,327)"/>
<path d="M0 0 C0.33 0 0.66 0 1 0 C1 4.29 1 8.58 1 13 C1.66 13 2.32 13 3 13 C3 12.34 3 11.68 3 11 C3.66 11 4.32 11 5 11 C4.67 12.65 4.34 14.3 4 16 C2.68 15.67 1.36 15.34 0 15 C0 10.05 0 5.1 0 0 Z " fill="#9A9A9A" transform="translate(106,306)"/>
<path d="M0 0 C3.42931954 3.7559214 4.56429083 8.23466745 6 13 C5.34 13 4.68 13 4 13 C0.34916857 8.5975268 -0.45374191 5.67177385 0 0 Z " fill="#BCBCBA" transform="translate(91,307)"/>
<path d="M0 0 C0.721875 0.103125 1.44375 0.20625 2.1875 0.3125 C1.8575 0.9725 1.5275 1.6325 1.1875 2.3125 C0.5275 2.3125 -0.1325 2.3125 -0.8125 2.3125 C-1.4725 3.6325 -2.1325 4.9525 -2.8125 6.3125 C-4.4625 5.9825 -6.1125 5.6525 -7.8125 5.3125 C-3.50480769 0.38942308 -3.50480769 0.38942308 0 0 Z " fill="#D4D2D3" transform="translate(392.8125,72.6875)"/>
<path d="M0 0 C0 4.38968456 -2.12805101 5.76905739 -5 9 C-6.32 8.67 -7.64 8.34 -9 8 C-7.87811441 6.85111717 -6.75238316 5.70598863 -5.625 4.5625 C-4.99851563 3.92441406 -4.37203125 3.28632813 -3.7265625 2.62890625 C-2 1 -2 1 0 0 Z " fill="#BDBDBD" transform="translate(160,249)"/>
<path d="M0 0 C-1.3628389 4.08851671 -3.52386972 5.54626098 -7 8 C-9.19921875 7.640625 -9.19921875 7.640625 -11 7 C-9.54634731 5.82750647 -8.08692581 4.66216184 -6.625 3.5 C-5.40683594 2.52546875 -5.40683594 2.52546875 -4.1640625 1.53125 C-2 0 -2 0 0 0 Z " fill="#C9C9C9" transform="translate(273,166)"/>
<path d="M0 0 C0.66 0.99 1.32 1.98 2 3 C-2.625 7.875 -2.625 7.875 -6 9 C-4.47291037 5.56404834 -2.40072955 2.88087546 0 0 Z " fill="#C2C2C2" transform="translate(150,258)"/>
<path d="M0 0 C-0.125 1.8125 -0.125 1.8125 -1 4 C-4.0625 5.75 -4.0625 5.75 -7 7 C-7.99 6.34 -8.98 5.68 -10 5 C-8.71186658 4.16121545 -7.41936744 3.32913217 -6.125 2.5 C-5.40570313 2.0359375 -4.68640625 1.571875 -3.9453125 1.09375 C-2 0 -2 0 0 0 Z " fill="#CFCFCF" transform="translate(408,158)"/>
<path d="M0 0 C0.66 0 1.32 0 2 0 C2 2.31 2 4.62 2 7 C1.01 7.495 1.01 7.495 0 8 C-0.33 7.01 -0.66 6.02 -1 5 C-1.66 5.66 -2.32 6.32 -3 7 C-3 5.68 -3 4.36 -3 3 C-2.34 3 -1.68 3 -1 3 C-0.67 2.01 -0.34 1.02 0 0 Z " fill="#C3BFC1" transform="translate(168,153)"/>
<path d="M0 0 C1.31538327 4.15771494 0.34433068 6.8879297 -1 11 C-1.66 11 -2.32 11 -3 11 C-3.33 11.99 -3.66 12.98 -4 14 C-4.33 13.34 -4.66 12.68 -5 12 C-4.26821134 9.92803369 -3.44100997 7.8891448 -2.5625 5.875 C-2.08941406 4.77929688 -1.61632812 3.68359375 -1.12890625 2.5546875 C-0.75636719 1.71164062 -0.38382812 0.86859375 0 0 Z " fill="#BDBDBD" transform="translate(408,314)"/>
<path d="M0 0 C5.94 0 11.88 0 18 0 C18 0.33 18 0.66 18 1 C16.87980469 1.06058594 15.75960938 1.12117187 14.60546875 1.18359375 C13.13280016 1.26801424 11.66014456 1.35266149 10.1875 1.4375 C9.44951172 1.47681641 8.71152344 1.51613281 7.95117188 1.55664062 C4.76928658 1.74381035 2.03837622 1.98720793 -1 3 C-0.67 2.01 -0.34 1.02 0 0 Z " fill="#CFCFCF" transform="translate(383,203)"/>
<path d="M0 0 C1.32 0 2.64 0 4 0 C3.4409112 3.24271506 2.5867822 4.93057424 0 7 C-0.66 7 -1.32 7 -2 7 C-1.34 4.69 -0.68 2.38 0 0 Z " fill="#BDBBBC" transform="translate(425,107)"/>
<path d="M0 0 C-2.21208617 2.21208617 -4.20155619 3.6007781 -7 5 C-9.3125 4.6875 -9.3125 4.6875 -11 4 C-7.20307814 1.17438373 -4.81430721 -0.56638908 0 0 Z " fill="#BBBBBB" transform="translate(375,69)"/>
<path d="M0 0 C3.25543229 0.34879632 4.01873107 1.02133261 6.25 3.5625 C6.8275 4.366875 7.405 5.17125 8 6 C7.01 6.33 6.02 6.66 5 7 C3.29115995 5.37660195 1.62553283 3.70680947 0 2 C0 1.34 0 0.68 0 0 Z " fill="#B9B9B9" transform="translate(192,366)"/>
<path d="M0 0 C3.11954738 0.33724836 4.6209965 0.6209965 6.875 2.875 C7.24625 3.57625 7.6175 4.2775 8 5 C7.67 5.99 7.34 6.98 7 8 C5.83035398 6.8572081 4.66435444 5.71068285 3.5 4.5625 C2.8503125 3.92441406 2.200625 3.28632813 1.53125 2.62890625 C0 1 0 1 0 0 Z " fill="#C9C8C9" transform="translate(273,290)"/>
<path d="M0 0 C1.14926266 0.95421808 2.29430541 1.91352045 3.4375 2.875 C4.07558594 3.40867187 4.71367187 3.94234375 5.37109375 4.4921875 C7 6 7 6 8 8 C4.89347355 7.6641593 3.39585697 7.40950721 1.1875 5.125 C0 3 0 3 0 0 Z " fill="#A9A9A9" transform="translate(240,270)"/>
<path d="M0 0 C4.79280002 0.80904103 6.13520113 3.25984591 9 7 C6 7 6 7 4.39453125 5.46875 C3.87246094 4.8190625 3.35039062 4.169375 2.8125 3.5 C2.28269531 2.8503125 1.75289062 2.200625 1.20703125 1.53125 C0.80871094 1.0259375 0.41039062 0.520625 0 0 Z " fill="#B1B1B1" transform="translate(249,267)"/>
<path d="M0 0 C0.33 0.99 0.66 1.98 1 3 C-0.423125 3.928125 -0.423125 3.928125 -1.875 4.875 C-4.94445109 6.81970969 -4.94445109 6.81970969 -7 9 C-7.99 8.67 -8.98 8.34 -10 8 C-6.7 5.36 -3.4 2.72 0 0 Z " fill="#B2B2B2" transform="translate(337,142)"/>
<path d="M0 0 C0.66 0.33 1.32 0.66 2 1 C0.75803878 2.15454162 -0.49392845 3.29832562 -1.75 4.4375 C-2.79414063 5.39462891 -2.79414063 5.39462891 -3.859375 6.37109375 C-5.98792725 7.99081325 -7.39023405 8.58267256 -10 9 C-6.83047153 5.73991357 -3.60062011 2.77762123 0 0 Z " fill="#B2B2B2" transform="translate(354,129)"/>
<path d="M0 0 C0.33 0.99 0.66 1.98 1 3 C-1.3125 5.0625 -1.3125 5.0625 -4 7 C-4.99 6.67 -5.98 6.34 -7 6 C-4.69 4.02 -2.38 2.04 0 0 Z " fill="#B8B8B8" transform="translate(151,226)"/>
<path d="M0 0 C0.33 0.66 0.66 1.32 1 2 C0.34 2 -0.32 2 -1 2 C-1 2.66 -1 3.32 -1 4 C-1.928125 4.12375 -1.928125 4.12375 -2.875 4.25 C-5.18437567 4.81258459 -5.18437567 4.81258459 -6.25 7.0625 C-6.4975 7.701875 -6.745 8.34125 -7 9 C-7.66 8.01 -8.32 7.02 -9 6 C-6.03 4.02 -3.06 2.04 0 0 Z " fill="#C1C1C1" transform="translate(290,178)"/>
<path d="M0 0 C1.32 0 2.64 0 4 0 C4.66 1.98 5.32 3.96 6 6 C5.34 6 4.68 6 4 6 C3.34 5.01 2.68 4.02 2 3 C-0.05925139 2.27617533 -0.05925139 2.27617533 -2 2 C-1.34 1.34 -0.68 0.68 0 0 Z " fill="#BABABA" transform="translate(412,154)"/>
<path d="M0 0 C5.445 1.485 5.445 1.485 11 3 C11 3.33 11 3.66 11 4 C9.741875 4.020625 8.48375 4.04125 7.1875 4.0625 C6.47980469 4.07410156 5.77210938 4.08570312 5.04296875 4.09765625 C3 4 3 4 0 3 C0 2.01 0 1.02 0 0 Z " fill="#B6B6B6" transform="translate(265,101)"/>
<path d="M0 0 C3.37503669 1.1858237 5.64722731 2.27573689 8 5 C7.67 5.99 7.34 6.98 7 8 C5.83035398 6.8572081 4.66435444 5.71068285 3.5 4.5625 C2.8503125 3.92441406 2.200625 3.28632813 1.53125 2.62890625 C0 1 0 1 0 0 Z " fill="#D3D3D3" transform="translate(303,387)"/>
<path d="M0 0 C2.23551759 3.35327639 2.17283528 3.90743657 1.625 7.6875 C1.51414062 8.49574219 1.40328125 9.30398437 1.2890625 10.13671875 C1.19367188 10.75160156 1.09828125 11.36648437 1 12 C0.34 12 -0.32 12 -1 12 C-1.02687279 10.18757948 -1.04633715 8.37504767 -1.0625 6.5625 C-1.07410156 5.55316406 -1.08570312 4.54382813 -1.09765625 3.50390625 C-1 1 -1 1 0 0 Z " fill="#D1D1D1" transform="translate(126,211)"/>
<path d="M0 0 C0.66 0.33 1.32 0.66 2 1 C-0.74395564 3.94721162 -3.38337216 6.19168608 -7 8 C-7.66 7.67 -8.32 7.34 -9 7 C-6.03 4.69 -3.06 2.38 0 0 Z " fill="#BABABA" transform="translate(240,188)"/>
<path d="M0 0 C0.66 0.33 1.32 0.66 2 1 C1 4 1 4 -1.9375 5.75 C-3.4534375 6.36875 -3.4534375 6.36875 -5 7 C-5.66 6.67 -6.32 6.34 -7 6 C-4.69 4.02 -2.38 2.04 0 0 Z " fill="#C1C1C1" transform="translate(373,114)"/>
<path d="M0 0 C0.66 0.33 1.32 0.66 2 1 C0.3125 4 0.3125 4 -2 7 C-4.75 7.375 -4.75 7.375 -7 7 C-4.66666667 4.66666667 -2.33333333 2.33333333 0 0 Z " fill="#C7C7C7" transform="translate(347,109)"/>
<path d="M0 0 C-1.13304992 3.39914975 -2.12518475 4.05254451 -5 6 C-5.99 5.34 -6.98 4.68 -8 4 C-2.25 0 -2.25 0 0 0 Z " fill="#C3C3C3" transform="translate(178,116)"/>
<path d="M0 0 C0.66 0 1.32 0 2 0 C3.625 3.3125 3.625 3.3125 5 7 C4.01 8.485 4.01 8.485 3 10 C2.01 6.7 1.02 3.4 0 0 Z " fill="#A7A7A7" transform="translate(142,365)"/>
<path d="M0 0 C2.475 0.495 2.475 0.495 5 1 C5.12375 1.639375 5.2475 2.27875 5.375 2.9375 C5.684375 3.9584375 5.684375 3.9584375 6 5 C6.66 5.33 7.32 5.66 8 6 C5 6 5 6 3.61328125 4.6875 C2.40885417 3.125 1.20442708 1.5625 0 0 Z " fill="#8E8E8E" transform="translate(241,327)"/>
<path d="M0 0 C0.66 0.33 1.32 0.66 2 1 C-1.465 3.97 -1.465 3.97 -5 7 C-5.66 6.34 -6.32 5.68 -7 5 C-4.69 3.35 -2.38 1.7 0 0 Z " fill="#B7B7B7" transform="translate(250,181)"/>
<path d="M0 0 C1.32 0 2.64 0 4 0 C4 0.66 4 1.32 4 2 C6.64 2 9.28 2 12 2 C12 2.33 12 2.66 12 3 C10.37581255 3.08090971 8.75048255 3.13914995 7.125 3.1875 C5.76761719 3.23970703 5.76761719 3.23970703 4.3828125 3.29296875 C3.20332031 3.14794922 3.20332031 3.14794922 2 3 C1.34 2.01 0.68 1.02 0 0 Z " fill="#EDEDED" transform="translate(248,394)"/>
<path d="M0 0 C0.66 1.32 1.32 2.64 2 4 C0.68 5.65 -0.64 7.3 -2 9 C-1.125 2.25 -1.125 2.25 0 0 Z " fill="#D1D1D1" transform="translate(402,328)"/>
<path d="M0 0 C0.99 0.33 1.98 0.66 3 1 C2.34 2.32 1.68 3.64 1 5 C1.66 5.33 2.32 5.66 3 6 C2.67 6.66 2.34 7.32 2 8 C1.01 7.67 0.02 7.34 -1 7 C-1.04254356 5.00045254 -1.04080783 2.99958364 -1 1 C-0.67 0.67 -0.34 0.34 0 0 Z " fill="#B1B1B1" transform="translate(262,244)"/>
<path d="M0 0 C0.66 0.33 1.32 0.66 2 1 C2 2.98 2 4.96 2 7 C1.01 7.495 1.01 7.495 0 8 C-0.79953138 4.71303767 -1.09658936 3.28976808 0 0 Z " fill="#BABABA" transform="translate(405,221)"/>
<path d="M0 0 C0.33 0.99 0.66 1.98 1 3 C-1.3125 4.5625 -1.3125 4.5625 -4 6 C-4.99 5.67 -5.98 5.34 -7 5 C-4.69 3.35 -2.38 1.7 0 0 Z " fill="#BABABA" transform="translate(253,205)"/>
<path d="M0 0 C3.0916909 2.52956528 3.90931332 5.22454612 5 9 C4.01 8.67 3.02 8.34 2 8 C1.26953125 6.15234375 1.26953125 6.15234375 0.8125 3.9375 C0.65394531 3.20402344 0.49539063 2.47054687 0.33203125 1.71484375 C0.22246094 1.14894531 0.11289062 0.58304688 0 0 Z " fill="#A5A5A5" transform="translate(420,164)"/>
<path d="M0 0 C-1 3 -1 3 -3.375 4.25 C-6 5 -6 5 -9 4 C-2.25 0 -2.25 0 0 0 Z " fill="#BABABA" transform="translate(159,85)"/>
</svg>
